<svg width="143" height="56" viewBox="0 0 143 56" fill="none" xmlns="http://www.w3.org/2000/svg">
<path d="M128.967 35.0292C128.724 34.7031 128.35 34.4848 127.894 34.5029C127.494 34.518 127.095 34.5317 126.694 34.548C130.1 33.2842 133.424 31.811 136.681 30.1322C133.863 34.1134 130.994 38.0545 128.059 41.9446C128.565 40.1481 129.069 38.3512 129.575 36.5547C129.777 35.8366 129.45 35.306 128.967 35.0292ZM52.1325 16.4152C61.637 18.9077 57.404 29.8141 50.5491 32.3385C46.1377 33.9621 40.8261 33.4764 36.3445 32.5575C35.573 23.6283 42.2642 13.8279 52.1325 16.4152ZM140.611 24.7254C132.655 29.4924 124.269 32.9023 115.325 35.0226C113.78 35.3905 114.104 37.8942 115.681 37.8361C118.484 37.7273 121.284 37.6208 124.085 37.5143C112.833 47.1885 98.5847 51.6528 84.0637 52.6051C69.1117 53.5877 45.9808 53.3691 37.9159 38.0689C37.4915 37.2649 37.1614 36.4209 36.9061 35.5538C43.3182 36.7483 50.8045 36.8042 56.0147 32.4405C60.275 28.8722 62.421 22.2054 58.8584 17.4493C49.6669 5.17233 32.4168 19.4117 33.2184 31.7976C18.6277 27.6561 7.11256 15.9579 1.87618 1.4476C1.51351 0.443457 -0.0238027 0.837117 0.270495 1.91044C4.71465 18.0905 17.7739 30.7621 33.662 34.8221C37.3152 51.8124 58.9553 55.0261 73.2621 55.597C91.8938 56.3448 111.192 52.2572 125.787 39.7676C125 42.5664 124.213 45.3655 123.426 48.1642C123.065 49.4453 124.84 50.6906 125.739 49.5341C131.54 42.0771 137.126 34.4611 142.495 26.6745C143.332 25.4599 141.759 24.037 140.611 24.7254Z" fill="#8DD9E5"/>
<path d="M128.967 35.0292C128.724 34.7031 128.35 34.4848 127.894 34.5029C127.494 34.518 127.095 34.5317 126.694 34.548C130.1 33.2842 133.424 31.811 136.681 30.1322C133.863 34.1134 130.994 38.0545 128.059 41.9446C128.565 40.1481 129.069 38.3512 129.575 36.5547C129.777 35.8366 129.45 35.306 128.967 35.0292ZM52.1325 16.4152C61.637 18.9077 57.404 29.8141 50.5491 32.3385C46.1377 33.9621 40.8261 33.4764 36.3445 32.5575C35.573 23.6283 42.2642 13.8279 52.1325 16.4152ZM140.611 24.7254C132.655 29.4924 124.269 32.9023 115.325 35.0226C113.78 35.3905 114.104 37.8942 115.681 37.8361C118.484 37.7273 121.284 37.6208 124.085 37.5143C112.833 47.1885 98.5847 51.6528 84.0637 52.6051C69.1117 53.5877 45.9808 53.3691 37.9159 38.0689C37.4915 37.2649 37.1614 36.4209 36.9061 35.5538C43.3182 36.7483 50.8045 36.8042 56.0147 32.4405C60.275 28.8722 62.421 22.2054 58.8584 17.4493C49.6669 5.17233 32.4168 19.4117 33.2184 31.7976C18.6277 27.6561 7.11256 15.9579 1.87618 1.4476C1.51351 0.443457 -0.0238027 0.837117 0.270495 1.91044C4.71465 18.0905 17.7739 30.7621 33.662 34.8221C37.3152 51.8124 58.9553 55.0261 73.2621 55.597C91.8938 56.3448 111.192 52.2572 125.787 39.7676C125 42.5664 124.213 45.3655 123.426 48.1642C123.065 49.4453 124.84 50.6906 125.739 49.5341C131.54 42.0771 137.126 34.4611 142.495 26.6745C143.332 25.4599 141.759 24.037 140.611 24.7254Z" fill="#5879E8"/>
</svg>
